<svg width="1200" height="675" viewBox="0 0 1200 675" fill="none" xmlns="http://www.w3.org/2000/svg">
  <defs>
    <linearGradient id="bg" x1="0" y1="0" x2="1200" y2="675" gradientUnits="userSpaceOnUse">
      <stop stop-color="#F5F7FA"/>
      <stop offset="1" stop-color="#E6ECF4"/>
    </linearGradient>
    <linearGradient id="leftCard" x1="0" y1="0" x2="0" y2="1">
      <stop stop-color="#1E3A5F"/>
      <stop offset="1" stop-color="#0D4E73"/>
    </linearGradient>
    <linearGradient id="rightCard" x1="0" y1="0" x2="0" y2="1">
      <stop stop-color="#2BA8A8"/>
      <stop offset="1" stop-color="#1F8080"/>
    </linearGradient>
    <linearGradient id="divider" x1="600" y1="130" x2="600" y2="560" gradientUnits="userSpaceOnUse">
      <stop stop-color="#CBD5E1" stop-opacity="0"/>
      <stop offset="0.3" stop-color="#CBD5E1"/>
      <stop offset="0.7" stop-color="#CBD5E1"/>
      <stop offset="1" stop-color="#CBD5E1" stop-opacity="0"/>
    </linearGradient>
  </defs>
  <rect width="1200" height="675" fill="url(#bg)"/>
  <rect x="80" y="80" width="1040" height="520" rx="24" fill="#FFFFFF" stroke="#D6DFEA" stroke-width="2"/>
  <circle cx="600" cy="330" r="38" fill="#F5F7FA" stroke="#D6DFEA" stroke-width="2"/>
  <text x="600" y="337" font-family="Arial, Helvetica, sans-serif" font-size="20" font-weight="700" fill="#1E3A5F" text-anchor="middle">VS</text>
  <line x1="600" y1="130" x2="600" y2="560" stroke="url(#divider)" stroke-width="1.5"/>
  <!-- LEFT: EVLT -->
  <rect x="120" y="130" width="420" height="400" rx="16" fill="url(#leftCard)"/>
  <rect x="148" y="158" width="90" height="28" rx="14" fill="#FFFFFF" fill-opacity="0.15"/>
  <text x="193" y="177" font-family="Arial, Helvetica, sans-serif" font-size="13" font-weight="600" fill="#FFFFFF" text-anchor="middle">EVLT</text>
  <line x1="278" y1="252" x2="342" y2="188" stroke="#FFFFFF" stroke-width="3" stroke-linecap="round"/>
  <circle cx="342" cy="188" r="10" fill="none" stroke="#FFFFFF" stroke-width="2" stroke-opacity="0.8"/>
  <circle cx="342" cy="188" r="18" fill="none" stroke="#FFFFFF" stroke-width="1.5" stroke-opacity="0.5"/>
  <circle cx="342" cy="188" r="26" fill="none" stroke="#FFFFFF" stroke-width="1" stroke-opacity="0.3"/>
  <rect x="148" y="270" width="180" height="12" rx="6" fill="#FFFFFF" fill-opacity="0.9"/>
  <rect x="148" y="294" width="340" height="8" rx="4" fill="#FFFFFF" fill-opacity="0.4"/>
  <rect x="148" y="314" width="300" height="8" rx="4" fill="#FFFFFF" fill-opacity="0.4"/>
  <rect x="148" y="334" width="320" height="8" rx="4" fill="#FFFFFF" fill-opacity="0.4"/>
  <line x1="148" y1="360" x2="500" y2="360" stroke="#FFFFFF" stroke-width="1" stroke-opacity="0.2"/>
  <rect x="148" y="374" width="110" height="26" rx="13" fill="#FFFFFF" fill-opacity="0.15"/>
  <text x="203" y="391" font-family="Arial, Helvetica, sans-serif" font-size="11" fill="#FFFFFF" text-anchor="middle">Varicose Veins</text>
  <rect x="268" y="374" width="118" height="26" rx="13" fill="#FFFFFF" fill-opacity="0.15"/>
  <text x="327" y="391" font-family="Arial, Helvetica, sans-serif" font-size="11" fill="#FFFFFF" text-anchor="middle">Often Covered</text>
  <rect x="148" y="410" width="140" height="26" rx="13" fill="#FFFFFF" fill-opacity="0.15"/>
  <text x="218" y="427" font-family="Arial, Helvetica, sans-serif" font-size="11" fill="#FFFFFF" text-anchor="middle">In-Office Laser</text>
  <text x="148" y="476" font-family="Arial, Helvetica, sans-serif" font-size="32" font-weight="700" fill="#FFFFFF">45-60</text>
  <text x="232" y="476" font-family="Arial, Helvetica, sans-serif" font-size="14" fill="#FFFFFF" fill-opacity="0.7"> min</text>
  <text x="148" y="498" font-family="Arial, Helvetica, sans-serif" font-size="12" fill="#FFFFFF" fill-opacity="0.6">Typical procedure time</text>
  <!-- RIGHT: Sclerotherapy -->
  <rect x="660" y="130" width="420" height="400" rx="16" fill="url(#rightCard)"/>
  <rect x="690" y="158" width="140" height="28" rx="14" fill="#FFFFFF" fill-opacity="0.15"/>
  <text x="760" y="177" font-family="Arial, Helvetica, sans-serif" font-size="13" font-weight="600" fill="#FFFFFF" text-anchor="middle">Sclerotherapy</text>
  <rect x="862" y="210" width="56" height="20" rx="5" fill="none" stroke="#FFFFFF" stroke-width="2.5"/>
  <rect x="858" y="214" width="8" height="12" rx="2" fill="#FFFFFF" fill-opacity="0.7"/>
  <line x1="918" y1="220" x2="934" y2="220" stroke="#FFFFFF" stroke-width="2.5" stroke-linecap="round"/>
  <rect x="866" y="213" width="28" height="14" rx="2" fill="#FFFFFF" fill-opacity="0.3"/>
  <rect x="690" y="270" width="200" height="12" rx="6" fill="#FFFFFF" fill-opacity="0.9"/>
  <rect x="690" y="294" width="340" height="8" rx="4" fill="#FFFFFF" fill-opacity="0.4"/>
  <rect x="690" y="314" width="280" height="8" rx="4" fill="#FFFFFF" fill-opacity="0.4"/>
  <rect x="690" y="334" width="310" height="8" rx="4" fill="#FFFFFF" fill-opacity="0.4"/>
  <line x1="690" y1="360" x2="1042" y2="360" stroke="#FFFFFF" stroke-width="1" stroke-opacity="0.2"/>
  <rect x="690" y="374" width="100" height="26" rx="13" fill="#FFFFFF" fill-opacity="0.15"/>
  <text x="740" y="391" font-family="Arial, Helvetica, sans-serif" font-size="11" fill="#FFFFFF" text-anchor="middle">Spider Veins</text>
  <rect x="800" y="374" width="90" height="26" rx="13" fill="#FFFFFF" fill-opacity="0.15"/>
  <text x="845" y="391" font-family="Arial, Helvetica, sans-serif" font-size="11" fill="#FFFFFF" text-anchor="middle">Self-Pay</text>
  <rect x="690" y="410" width="128" height="26" rx="13" fill="#FFFFFF" fill-opacity="0.15"/>
  <text x="754" y="427" font-family="Arial, Helvetica, sans-serif" font-size="11" fill="#FFFFFF" text-anchor="middle">Injection-Based</text>
  <text x="690" y="476" font-family="Arial, Helvetica, sans-serif" font-size="32" font-weight="700" fill="#FFFFFF">15-30</text>
  <text x="774" y="476" font-family="Arial, Helvetica, sans-serif" font-size="14" fill="#FFFFFF" fill-opacity="0.7"> min</text>
  <text x="690" y="498" font-family="Arial, Helvetica, sans-serif" font-size="12" fill="#FFFFFF" fill-opacity="0.6">Typical session time</text>
  <!-- Bottom title -->
  <text x="600" y="600" font-family="Arial, Helvetica, sans-serif" font-size="25" font-weight="700" fill="#0D4E73" text-anchor="middle">EVLT vs. Sclerotherapy: Which Vein Treatment Is Right for You?</text>
  <text x="600" y="632" font-family="Arial, Helvetica, sans-serif" font-size="18" fill="#5A6C82" text-anchor="middle">Schulman Vein and Laser Center - New York</text>
</svg>
